<svg width="380" height="44" viewBox="0 0 380 44" fill="none" xmlns="http://www.w3.org/2000/svg">
<rect width="380" height="44" rx="10" fill="#222325"/>
<g opacity="0.3">
<circle cx="27.7666" cy="21.7666" r="8.98856" stroke="white" stroke-width="1.5" stroke-linecap="round" stroke-linejoin="round"/>
<path d="M34.0183 28.4851L37.5423 32" stroke="white" stroke-width="1.5" stroke-linecap="round" stroke-linejoin="round"/>
</g>
<path opacity="0.3" d="M63.3828 24.625C63.3828 24.3594 63.3411 24.125 63.2578 23.9219C63.1797 23.7135 63.0391 23.526 62.8359 23.3594C62.638 23.1927 62.362 23.0339 62.0078 22.8828C61.6589 22.7318 61.2161 22.5781 60.6797 22.4219C60.1172 22.2552 59.6094 22.0703 59.1562 21.8672C58.7031 21.6589 58.3151 21.4219 57.9922 21.1562C57.6693 20.8906 57.4219 20.5859 57.25 20.2422C57.0781 19.8984 56.9922 19.5052 56.9922 19.0625C56.9922 18.6198 57.0833 18.2109 57.2656 17.8359C57.4479 17.4609 57.7083 17.1354 58.0469 16.8594C58.3906 16.5781 58.7995 16.3594 59.2734 16.2031C59.7474 16.0469 60.276 15.9688 60.8594 15.9688C61.7135 15.9688 62.4375 16.1328 63.0312 16.4609C63.6302 16.7839 64.0859 17.2083 64.3984 17.7344C64.7109 18.2552 64.8672 18.8125 64.8672 19.4062H63.3672C63.3672 18.9792 63.276 18.6016 63.0938 18.2734C62.9115 17.9401 62.6354 17.6797 62.2656 17.4922C61.8958 17.2995 61.4271 17.2031 60.8594 17.2031C60.3229 17.2031 59.8802 17.2839 59.5312 17.4453C59.1823 17.6068 58.9219 17.8255 58.75 18.1016C58.5833 18.3776 58.5 18.6927 58.5 19.0469C58.5 19.2865 58.5495 19.5052 58.6484 19.7031C58.7526 19.8958 58.9115 20.0755 59.125 20.2422C59.3438 20.4089 59.6198 20.5625 59.9531 20.7031C60.2917 20.8438 60.6953 20.9792 61.1641 21.1094C61.8099 21.2917 62.3672 21.4948 62.8359 21.7188C63.3047 21.9427 63.6901 22.1953 63.9922 22.4766C64.2995 22.7526 64.526 23.0677 64.6719 23.4219C64.8229 23.7708 64.8984 24.1667 64.8984 24.6094C64.8984 25.0729 64.8047 25.4922 64.6172 25.8672C64.4297 26.2422 64.1615 26.5625 63.8125 26.8281C63.4635 27.0938 63.0443 27.2995 62.5547 27.4453C62.0703 27.5859 61.5286 27.6562 60.9297 27.6562C60.4036 27.6562 59.8854 27.5833 59.375 27.4375C58.8698 27.2917 58.4089 27.0729 57.9922 26.7812C57.5807 26.4896 57.25 26.1302 57 25.7031C56.7552 25.2708 56.6328 24.7708 56.6328 24.2031H58.1328C58.1328 24.5938 58.2083 24.9297 58.3594 25.2109C58.5104 25.487 58.7161 25.7161 58.9766 25.8984C59.2422 26.0807 59.5417 26.2161 59.875 26.3047C60.2135 26.388 60.5651 26.4297 60.9297 26.4297C61.4557 26.4297 61.901 26.3568 62.2656 26.2109C62.6302 26.0651 62.9062 25.8568 63.0938 25.5859C63.2865 25.3151 63.3828 24.9948 63.3828 24.625ZM70.1094 27.6562C69.5208 27.6562 68.987 27.5573 68.5078 27.3594C68.0339 27.1562 67.625 26.8724 67.2812 26.5078C66.9427 26.1432 66.6823 25.7109 66.5 25.2109C66.3177 24.7109 66.2266 24.1641 66.2266 23.5703V23.2422C66.2266 22.5547 66.3281 21.9427 66.5312 21.4062C66.7344 20.8646 67.0104 20.4062 67.3594 20.0312C67.7083 19.6562 68.1042 19.3724 68.5469 19.1797C68.9896 18.987 69.4479 18.8906 69.9219 18.8906C70.526 18.8906 71.0469 18.9948 71.4844 19.2031C71.9271 19.4115 72.2891 19.7031 72.5703 20.0781C72.8516 20.4479 73.0599 20.8854 73.1953 21.3906C73.3307 21.8906 73.3984 22.4375 73.3984 23.0312V23.6797H67.0859V22.5H71.9531V22.3906C71.9323 22.0156 71.8542 21.651 71.7188 21.2969C71.5885 20.9427 71.3802 20.651 71.0938 20.4219C70.8073 20.1927 70.4167 20.0781 69.9219 20.0781C69.5938 20.0781 69.2917 20.1484 69.0156 20.2891C68.7396 20.4245 68.5026 20.6276 68.3047 20.8984C68.1068 21.1693 67.9531 21.5 67.8438 21.8906C67.7344 22.2812 67.6797 22.7318 67.6797 23.2422V23.5703C67.6797 23.9714 67.7344 24.349 67.8438 24.7031C67.9583 25.0521 68.1224 25.3594 68.3359 25.625C68.5547 25.8906 68.8177 26.099 69.125 26.25C69.4375 26.401 69.7917 26.4766 70.1875 26.4766C70.6979 26.4766 71.1302 26.3724 71.4844 26.1641C71.8385 25.9557 72.1484 25.6771 72.4141 25.3281L73.2891 26.0234C73.1068 26.2995 72.875 26.5625 72.5938 26.8125C72.3125 27.0625 71.9661 27.2656 71.5547 27.4219C71.1484 27.5781 70.6667 27.6562 70.1094 27.6562ZM80.0703 26.0547V21.7031C80.0703 21.3698 80.0026 21.0807 79.8672 20.8359C79.737 20.5859 79.5391 20.3932 79.2734 20.2578C79.0078 20.1224 78.6797 20.0547 78.2891 20.0547C77.9245 20.0547 77.6042 20.1172 77.3281 20.2422C77.0573 20.3672 76.8438 20.5312 76.6875 20.7344C76.5365 20.9375 76.4609 21.1562 76.4609 21.3906H75.0156C75.0156 21.0885 75.0938 20.7891 75.25 20.4922C75.4062 20.1953 75.6302 19.9271 75.9219 19.6875C76.2188 19.4427 76.5729 19.25 76.9844 19.1094C77.401 18.9635 77.8646 18.8906 78.375 18.8906C78.9896 18.8906 79.5312 18.9948 80 19.2031C80.474 19.4115 80.8438 19.7266 81.1094 20.1484C81.3802 20.5651 81.5156 21.0885 81.5156 21.7188V25.6562C81.5156 25.9375 81.5391 26.237 81.5859 26.5547C81.638 26.8724 81.7135 27.1458 81.8125 27.375V27.5H80.3047C80.2318 27.3333 80.1745 27.112 80.1328 26.8359C80.0911 26.5547 80.0703 26.2943 80.0703 26.0547ZM80.3203 22.375L80.3359 23.3906H78.875C78.4635 23.3906 78.0964 23.4245 77.7734 23.4922C77.4505 23.5547 77.1797 23.651 76.9609 23.7812C76.7422 23.9115 76.5755 24.0755 76.4609 24.2734C76.3464 24.4661 76.2891 24.6927 76.2891 24.9531C76.2891 25.2188 76.349 25.4609 76.4688 25.6797C76.5885 25.8984 76.7682 26.0729 77.0078 26.2031C77.2526 26.3281 77.5521 26.3906 77.9062 26.3906C78.349 26.3906 78.7396 26.2969 79.0781 26.1094C79.4167 25.9219 79.6849 25.6927 79.8828 25.4219C80.0859 25.151 80.1953 24.888 80.2109 24.6328L80.8281 25.3281C80.7917 25.5469 80.6927 25.7891 80.5312 26.0547C80.3698 26.3203 80.1536 26.5755 79.8828 26.8203C79.6172 27.0599 79.2995 27.2604 78.9297 27.4219C78.5651 27.5781 78.1536 27.6562 77.6953 27.6562C77.1224 27.6562 76.6198 27.5443 76.1875 27.3203C75.7604 27.0964 75.4271 26.7969 75.1875 26.4219C74.9531 26.0417 74.8359 25.6172 74.8359 25.1484C74.8359 24.6953 74.9245 24.2969 75.1016 23.9531C75.2786 23.6042 75.5339 23.3151 75.8672 23.0859C76.2005 22.8516 76.6016 22.6745 77.0703 22.5547C77.5391 22.4349 78.0625 22.375 78.6406 22.375H80.3203ZM85.2344 20.375V27.5H83.7891V19.0469H85.1953L85.2344 20.375ZM87.875 19L87.8672 20.3438C87.7474 20.3177 87.6328 20.3021 87.5234 20.2969C87.4193 20.2865 87.2995 20.2812 87.1641 20.2812C86.8307 20.2812 86.5365 20.3333 86.2812 20.4375C86.026 20.5417 85.8099 20.6875 85.6328 20.875C85.4557 21.0625 85.3151 21.2865 85.2109 21.5469C85.112 21.8021 85.0469 22.0833 85.0156 22.3906L84.6094 22.625C84.6094 22.1146 84.6589 21.6354 84.7578 21.1875C84.862 20.7396 85.0208 20.3438 85.2344 20C85.4479 19.651 85.7188 19.3802 86.0469 19.1875C86.3802 18.9896 86.776 18.8906 87.2344 18.8906C87.3385 18.8906 87.4583 18.9036 87.5938 18.9297C87.7292 18.9505 87.8229 18.974 87.875 19ZM92.4375 26.4688C92.7812 26.4688 93.099 26.3984 93.3906 26.2578C93.6823 26.1172 93.9219 25.9245 94.1094 25.6797C94.2969 25.4297 94.4036 25.1458 94.4297 24.8281H95.8047C95.7786 25.3281 95.6094 25.7943 95.2969 26.2266C94.9896 26.6536 94.5859 27 94.0859 27.2656C93.5859 27.526 93.0365 27.6562 92.4375 27.6562C91.8021 27.6562 91.2474 27.5443 90.7734 27.3203C90.3047 27.0964 89.9141 26.7891 89.6016 26.3984C89.2943 26.0078 89.0625 25.5599 88.9062 25.0547C88.7552 24.5443 88.6797 24.0052 88.6797 23.4375V23.1094C88.6797 22.5417 88.7552 22.0052 88.9062 21.5C89.0625 20.9896 89.2943 20.5391 89.6016 20.1484C89.9141 19.7578 90.3047 19.4505 90.7734 19.2266C91.2474 19.0026 91.8021 18.8906 92.4375 18.8906C93.099 18.8906 93.6771 19.026 94.1719 19.2969C94.6667 19.5625 95.0547 19.9271 95.3359 20.3906C95.6224 20.849 95.7786 21.3698 95.8047 21.9531H94.4297C94.4036 21.6042 94.3047 21.2891 94.1328 21.0078C93.9661 20.7266 93.737 20.5026 93.4453 20.3359C93.1589 20.1641 92.8229 20.0781 92.4375 20.0781C91.9948 20.0781 91.6224 20.1667 91.3203 20.3438C91.0234 20.5156 90.7865 20.75 90.6094 21.0469C90.4375 21.3385 90.3125 21.6641 90.2344 22.0234C90.1615 22.3776 90.125 22.7396 90.125 23.1094V23.4375C90.125 23.8073 90.1615 24.1719 90.2344 24.5312C90.3073 24.8906 90.4297 25.2161 90.6016 25.5078C90.7786 25.7995 91.0156 26.0339 91.3125 26.2109C91.6146 26.3828 91.9896 26.4688 92.4375 26.4688ZM98.875 15.5V27.5H97.4297V15.5H98.875ZM98.5312 22.9531L97.9297 22.9297C97.9349 22.3516 98.0208 21.8177 98.1875 21.3281C98.3542 20.8333 98.5885 20.4036 98.8906 20.0391C99.1927 19.6745 99.5521 19.3932 99.9688 19.1953C100.391 18.9922 100.857 18.8906 101.367 18.8906C101.784 18.8906 102.159 18.9479 102.492 19.0625C102.826 19.1719 103.109 19.349 103.344 19.5938C103.583 19.8385 103.766 20.1562 103.891 20.5469C104.016 20.9323 104.078 21.4036 104.078 21.9609V27.5H102.625V21.9453C102.625 21.5026 102.56 21.1484 102.43 20.8828C102.299 20.612 102.109 20.4167 101.859 20.2969C101.609 20.1719 101.302 20.1094 100.938 20.1094C100.578 20.1094 100.25 20.1849 99.9531 20.3359C99.6615 20.487 99.4089 20.6953 99.1953 20.9609C98.987 21.2266 98.8229 21.5312 98.7031 21.875C98.5885 22.2135 98.5312 22.5729 98.5312 22.9531Z" fill="white"/>
</svg>
